<svg width="48" height="48" viewBox="0 0 48 48" fill="none" xmlns="http://www.w3.org/2000/svg">
<circle cx="24" cy="24" r="24" fill="#2060CF"/>
<path d="M11.8726 19.9942L24.0355 8.00012L28.3232 12.2284L16.1603 24.2225L11.8726 19.9942Z" fill="white"/>
<path d="M27.4528 11.3695L36.1861 19.9816L31.8983 24.2099L23.165 15.5978L27.4528 11.3695Z" fill="white"/>
<path d="M34.5824 34.991C28.7287 38.9931 19.2179 39.0032 13.3829 35.0136C9.34134 32.2503 7.9669 28.2245 9.79659 24.5072C9.87939 24.3401 10.1074 24.2271 10.3642 24.2268C10.6213 24.2265 10.8505 24.3378 10.933 24.504C11.6128 25.8753 12.7207 27.0921 14.224 28.1201C19.5927 31.7907 28.3418 31.7814 33.7269 28.0998C35.252 27.057 36.3713 25.8231 37.0569 24.4317C37.1393 24.2646 37.3673 24.1517 37.6241 24.1514C37.8821 24.1508 38.1104 24.2627 38.1924 24.4287C40.0436 28.1552 38.6598 32.2029 34.5821 34.991H34.5824Z" fill="white"/>
</svg>
